<svg xmlns="http://www.w3.org/2000/svg" viewBox="0 0 512 512">
  <rect width="512" height="512" rx="112" fill="#3b5bdb"/>
  <rect x="156" y="156" width="100" height="100" rx="14" fill="#fcc419" fill-opacity="0.9"/>
  <rect x="256" y="256" width="100" height="100" rx="14" fill="#ff6b6b" fill-opacity="0.9"/>
  <g stroke="#fff" stroke-width="18" stroke-linecap="round">
    <line x1="156" y1="156" x2="356" y2="156"/>
    <line x1="156" y1="156" x2="156" y2="356"/>
    <line x1="256" y1="156" x2="256" y2="356"/>
    <line x1="156" y1="256" x2="356" y2="256"/>
    <line x1="356" y1="256" x2="356" y2="356"/>
    <line x1="256" y1="356" x2="356" y2="356"/>
  </g>
  <g fill="#fff">
    <circle cx="156" cy="156" r="22"/><circle cx="256" cy="156" r="22"/><circle cx="356" cy="156" r="22"/>
    <circle cx="156" cy="256" r="22"/><circle cx="256" cy="256" r="22"/><circle cx="356" cy="256" r="22"/>
    <circle cx="156" cy="356" r="22"/><circle cx="256" cy="356" r="22"/><circle cx="356" cy="356" r="22"/>
  </g>
</svg>
